<?xml version="1.0" standalone="no"?><!DOCTYPE svg PUBLIC "-//W3C//DTD SVG 1.1//EN" "http://www.w3.org/Graphics/SVG/1.1/DTD/svg11.dtd"><svg t="1652782263826" class="icon" viewBox="0 0 1024 1024" version="1.1" xmlns="http://www.w3.org/2000/svg" p-id="12587" data-spm-anchor-id="a313x.7781069.0.i7" xmlns:xlink="http://www.w3.org/1999/xlink" width="200" height="200"><defs><style type="text/css">@font-face { font-family: feedback-iconfont; src: url("//at.alicdn.com/t/font_1031158_u69w8yhxdu.woff2?t=1630033759944") format("woff2"), url("//at.alicdn.com/t/font_1031158_u69w8yhxdu.woff?t=1630033759944") format("woff"), url("//at.alicdn.com/t/font_1031158_u69w8yhxdu.ttf?t=1630033759944") format("truetype"); }
</style></defs><path d="M304.02048 920.36608a207.97952 32.83968 0 1 0 415.95904 0 207.97952 32.83968 0 1 0-415.95904 0Z" fill="#999999" opacity=".3" p-id="12588" data-spm-anchor-id="a313x.7781069.0.i8" class=""></path><path d="M512 66.56c-175.31904 0-317.44 142.12096-317.44 317.44 0 175.31904 175.13984 361.22624 317.44 448.7936 164.19328-120.40704 317.44-273.47968 317.44-448.7936 0-175.31904-142.12096-317.44-317.44-317.44z m0 437.84704c-63.47776 0-114.93376-51.46112-114.93376-114.93376 0-63.47776 51.46112-114.93376 114.93376-114.93376 63.47776 0 114.93376 51.456 114.93376 114.93376S575.47776 504.40704 512 504.40704z" fill="#8a8a8a" p-id="12589" data-spm-anchor-id="a313x.7781069.0.i6" class=""></path></svg>