<?xml version="1.0" standalone="no"?><!DOCTYPE svg PUBLIC "-//W3C//DTD SVG 1.1//EN" "http://www.w3.org/Graphics/SVG/1.1/DTD/svg11.dtd"><svg t="1653711938816" class="icon" viewBox="0 0 1024 1024" version="1.1" xmlns="http://www.w3.org/2000/svg" p-id="8875" xmlns:xlink="http://www.w3.org/1999/xlink" width="200" height="200"><defs><style type="text/css">@font-face { font-family: feedback-iconfont; src: url("//at.alicdn.com/t/font_1031158_u69w8yhxdu.woff2?t=1630033759944") format("woff2"), url("//at.alicdn.com/t/font_1031158_u69w8yhxdu.woff?t=1630033759944") format("woff"), url("//at.alicdn.com/t/font_1031158_u69w8yhxdu.ttf?t=1630033759944") format("truetype"); }
</style></defs><path d="M864.757183 264.990257l-319.895751-191.573154c-10.116405-6.057973-21.48943-9.086959-32.861432-9.086959a63.915705 63.915705 0 0 0-32.861432 9.086959l-319.895751 191.573154a63.961754 63.961754 0 0 0-31.099298 54.873771v390.954133a63.960731 63.960731 0 0 0 31.980365 55.391565l319.895751 184.692442c9.894348 5.713119 20.937868 8.569166 31.980365 8.569166s22.086018-2.856048 31.980365-8.569166l319.895751-184.692442a63.959707 63.959707 0 0 0 31.980365-55.391565v-390.954133a63.959707 63.959707 0 0 0-31.099298-54.873771zM512 128.289851l288.778032 172.937725-289.062511 173.228343-288.603047-173.161828 288.887526-173.00424z m-319.895751 228.989322l287.621697 172.573427v347.022575L192.104249 710.817138V357.279173zM543.686676 877.214912V529.862833l288.209075-172.71669v353.670995L543.686676 877.214912z" p-id="8876" data-spm-anchor-id="a313x.7781069.0.i2" class="" fill="#dbdbdb"></path></svg>