<?xml version="1.0" standalone="no"?><!DOCTYPE svg PUBLIC "-//W3C//DTD SVG 1.1//EN" "http://www.w3.org/Graphics/SVG/1.1/DTD/svg11.dtd"><svg t="1653299436675" class="icon" viewBox="0 0 1024 1024" version="1.1" xmlns="http://www.w3.org/2000/svg" p-id="15628" data-spm-anchor-id="a313x.7781069.0.i6" xmlns:xlink="http://www.w3.org/1999/xlink" width="200" height="200"><defs><style type="text/css">@font-face { font-family: feedback-iconfont; src: url("//at.alicdn.com/t/font_1031158_u69w8yhxdu.woff2?t=1630033759944") format("woff2"), url("//at.alicdn.com/t/font_1031158_u69w8yhxdu.woff?t=1630033759944") format("woff"), url("//at.alicdn.com/t/font_1031158_u69w8yhxdu.ttf?t=1630033759944") format("truetype"); }
</style></defs><path d="M616.3 664.3l-39.2 28.8s-39.3 18.3-86.3-23.5c-47.1-41.9-130.7-137.5-154.2-192.3-23.5-54.9 23.5-78.4 23.5-78.4s61.5-51 64-60.1c2.6-9.2 36.6-45.7-36.6-143.8-73.2-98-90.2-78.4-129.4-48.4-39.2 30-94.2 88.9-105.9 156.9-11.8 68-19.6 151.6 79.8 300.7S481.7 867 565.3 885.3c83.8 18.3 142.6 30 226.1-37.9 83.7-68 98.2-74.5 60.2-122.9-37.9-48.4-121.3-106.4-133.8-108.8-12.4-2.5-30.4-6.7-58.5 14.2-28.2 20.8-43 34.4-43 34.4" p-id="15629" fill="#f8a515"></path></svg>